<svg xmlns="http://www.w3.org/2000/svg" version="1.1" xmlns:xlink="http://www.w3.org/1999/xlink" xmlns:svgjs="http://svgjs.com/svgjs" width="1440" height="560" preserveAspectRatio="none" viewBox="0 0 1440 560"><g mask="url(&quot;#SvgjsMask1008&quot;)" fill="none"><rect width="1440" height="560" x="0" y="0" fill="rgba(229, 229, 229, 1)"></rect><path d="M0,452.234C82,433.819,146.348,380.011,224.727,349.683C328.967,309.348,469.004,334.232,536.061,244.811C602.079,156.776,577.095,27.021,545.803,-78.475C516.867,-176.028,450.879,-259.485,368.686,-319.469C296.202,-372.367,202.432,-371.225,115.295,-392.658C32.689,-412.976,-44.746,-443.179,-129.807,-442.081C-238.688,-440.676,-359.179,-452.696,-444.807,-385.428C-533.752,-315.554,-592.534,-197.053,-585.407,-84.169C-578.475,25.63,-459.159,88.883,-408.691,186.643C-361.699,277.669,-386.433,411.824,-300.537,467.644C-214.688,523.434,-99.896,474.668,0,452.234" fill="#b7b7b7"></path><path d="M1440 1016.4300000000001C1533.206 1039.504 1650.532 1062.7640000000001 1721.637 998.236 1794.778 931.861 1742.498 806.211 1774.5810000000001 712.798 1802.098 632.678 1896.751 579.326 1894.599 494.639 1892.423 409.001 1827.894 336.20500000000004 1763.575 279.621 1704.096 227.296 1626.643 203.685 1548.575 190.22899999999998 1477.121 177.913 1407.991 196.995 1336.035 205.92700000000002 1248.523 216.79000000000002 1145.309 188.72500000000002 1080.338 248.351 1015.4780000000001 307.875 1023.4390000000001 411.355 1016.56 499.119 1010.071 581.912 1000.069 670.033 1041.651 741.92 1082.016 811.703 1169.297 832.187 1235.6779999999999 877.931 1304.829 925.5840000000001 1358.481 996.249 1440 1016.4300000000001" fill="#ffffff"></path></g><defs><mask id="SvgjsMask1008"><rect width="1440" height="560" fill="#ffffff"></rect></mask></defs></svg>